{
  "source": "C:\\Users\\Peter\\Desktop\\stuff\\MIUN\\quantitative_research\\video_compression\\videos\\BVI-HD\\BVI-HD_CDVL_videos\\ORIG\\SmokeGuns_1920x1080_60fps.mp4",
  "output": "C:\\Users\\Peter\\Desktop\\stuff\\MIUN\\quantitative_research\\video_compression\\compressed_videos\\BVI-HD\\h264\\1\\SmokeGuns_1920x1080_60fps_h264.mp4",
  "codec": "h264",
  "ok": "Input #0, mov,mp4,m4a,3gp,3g2,mj2, from 'C:\\Users\\Peter\\Desktop\\stuff\\MIUN\\quantitative_research\\video_compression\\videos\\BVI-HD\\BVI-HD_CDVL_videos\\ORIG\\SmokeGuns_1920x1080_60fps.mp4':\n  Metadata:\n    major_brand     : isom\n    minor_version   : 512\n    compatible_brands: isomiso2avc1mp41\n    encoder         : Lavf54.28.101\n  Duration: 00:00:05.00, start: 0.000000, bitrate: 384353 kb/s\n  Stream #0:0[0x1](und): Video: h264 (High 4:4:4 Predictive) (avc1 / 0x31637661), yuv420p(progressive), 1920x1080, 384348 kb/s, 60 fps, 60 tbr, 60 tbn (default)\n    Metadata:\n      handler_name    : VideoHandler\n      vendor_id       : [0][0][0][0]\n[out#0/mp4 @ 0000023794329c00] Codec AVOption b:a (set bitrate (in bits/s)) has not been used for any stream. The most likely reason is either wrong type (e.g. a video option with no video streams) or that it is a private option of some decoder which was not actually used for any stream.\nStream mapping:\n  Stream #0:0 -> #0:0 (h264 (native) -> h264 (libx264))\nPress [q] to stop, [?] for help\n[libx264 @ 0000023794920ac0] using cpu capabilities: MMX2 SSE2Fast SSSE3 SSE4.2 AVX FMA3 BMI2 AVX2\n[libx264 @ 0000023794920ac0] profile High, level 5.0, 4:2:0, 8-bit\n[libx264 @ 0000023794920ac0] 264 - core 165 r3222 b35605a - H.264/MPEG-4 AVC codec - Copyleft 2003-2025 - http://www.videolan.org/x264.html - options: cabac=1 ref=5 deblock=1:0:0 analyse=0x3:0x113 me=hex subme=8 psy=1 psy_rd=1.00:0.00 mixed_ref=1 me_range=16 chroma_me=1 trellis=2 8x8dct=1 cqm=0 deadzone=21,11 fast_pskip=1 chroma_qp_offset=-2 threads=18 lookahead_threads=3 sliced_threads=0 nr=0 decimate=1 interlaced=0 bluray_compat=0 constrained_intra=0 bframes=3 b_pyramid=2 b_adapt=1 b_bias=0 direct=3 weightb=1 open_gop=0 weightp=2 keyint=250 keyint_min=25 scenecut=40 intra_refresh=0 rc_lookahead=50 rc=cbr mbtree=1 bitrate=1000 ratetol=1.0 qcomp=0.60 qpmin=0 qpmax=69 qpstep=4 vbv_maxrate=1000 vbv_bufsize=1000 nal_hrd=none filler=0 ip_ratio=1.40 aq=1:1.00\nOutput #0, mp4, to 'C:\\Users\\Peter\\Desktop\\stuff\\MIUN\\quantitative_research\\video_compression\\compressed_videos\\BVI-HD\\h264\\1\\SmokeGuns_1920x1080_60fps_h264.mp4':\n  Metadata:\n    major_brand     : isom\n    minor_version   : 512\n    compatible_brands: isomiso2avc1mp41\n    encoder         : Lavf62.3.100\n  Stream #0:0(und): Video: h264 (avc1 / 0x31637661), yuv420p(tv, progressive), 1920x1080, q=2-31, 1000 kb/s, 60 fps, 15360 tbn (default)\n    Metadata:\n      encoder         : Lavc62.11.100 libx264\n      handler_name    : VideoHandler\n      vendor_id       : [0][0][0][0]\n    Side data:\n      cpb: bitrate max/min/avg: 1000000/0/1000000 buffer size: 1000000 vbv_delay: N/A\nframe=    0 fps=0.0 q=0.0 size=       0KiB time=N/A bitrate=N/A speed=N/A elapsed=0:00:00.53    \nframe=    0 fps=0.0 q=0.0 size=       0KiB time=N/A bitrate=N/A speed=N/A elapsed=0:00:01.18    \nframe=    0 fps=0.0 q=0.0 size=       0KiB time=N/A bitrate=N/A speed=N/A elapsed=0:00:01.76    \nframe=   12 fps=5.1 q=50.0 size=       0KiB time=00:00:00.16 bitrate=   2.3kbits/s speed=0.0714x elapsed=0:00:02.33    \nframe=   36 fps= 12 q=48.0 size=       0KiB time=00:00:00.50 bitrate=   0.8kbits/s speed=0.173x elapsed=0:00:02.89    \nframe=   60 fps= 17 q=47.0 size=       0KiB time=00:00:00.90 bitrate=   0.4kbits/s speed=0.254x elapsed=0:00:03.53    \nframe=   84 fps= 20 q=46.0 size=       0KiB time=00:00:01.36 bitrate=   0.3kbits/s speed=0.328x elapsed=0:00:04.16    \nframe=  112 fps= 24 q=47.0 size=       0KiB time=00:00:01.76 bitrate=   0.2kbits/s speed=0.373x elapsed=0:00:04.73    \nframe=  140 fps= 26 q=46.0 size=       0KiB time=00:00:02.30 bitrate=   0.2kbits/s speed=0.429x elapsed=0:00:05.35    \nframe=  164 fps= 28 q=46.0 size=       0KiB time=00:00:02.63 bitrate=   0.1kbits/s speed=0.444x elapsed=0:00:05.92    \nframe=  192 fps= 30 q=47.0 size=     256KiB time=00:00:03.10 bitrate= 676.6kbits/s speed=0.479x elapsed=0:00:06.47    \nframe=  220 fps= 31 q=47.0 size=     256KiB time=00:00:03.56 bitrate= 588.1kbits/s speed=0.504x elapsed=0:00:07.08    \nframe=  233 fps= 30 q=46.0 size=     256KiB time=00:00:03.85 bitrate= 544.8kbits/s speed=0.502x elapsed=0:00:07.66    \nframe=  300 fps= 36 q=-1.0 size=     256KiB time=00:00:04.91 bitrate= 426.6kbits/s speed=0.598x elapsed=0:00:08.22    \n[mp4 @ 000002379433a600] Starting second pass: moving the moov atom to the beginning of the file\n[out#0/mp4 @ 0000023794329c00] video:451KiB audio:0KiB subtitle:0KiB other streams:0KiB global headers:0KiB muxing overhead: 0.964714%\nframe=  300 fps= 36 q=-1.0 Lsize=     455KiB time=00:00:04.96 bitrate= 751.0kbits/s speed=0.603x elapsed=0:00:08.23    \n[libx264 @ 0000023794920ac0] frame I:2     Avg QP:42.15  size: 15467\n[libx264 @ 0000023794920ac0] frame P:76    Avg QP:44.49  size:  3873\n[libx264 @ 0000023794920ac0] frame B:222   Avg QP:49.71  size:   611\n[libx264 @ 0000023794920ac0] consecutive B-frames:  1.3%  0.0%  0.0% 98.7%\n[libx264 @ 0000023794920ac0] mb I  I16..4: 48.3% 51.3%  0.5%\n[libx264 @ 0000023794920ac0] mb P  I16..4:  5.7%  2.0%  0.0%  P16..4: 19.2%  0.5%  0.7%  0.0%  0.0%    skip:71.9%\n[libx264 @ 0000023794920ac0] mb B  I16..4:  0.0%  0.0%  0.0%  B16..8:  8.1%  0.0%  0.0%  direct: 0.0%  skip:91.8%  L0:17.5% L1:82.2% BI: 0.3%\n[libx264 @ 0000023794920ac0] 8x8 transform intra:32.9% inter:97.6%\n[libx264 @ 0000023794920ac0] direct mvs  spatial:95.5% temporal:4.5%\n[libx264 @ 0000023794920ac0] coded y,uvDC,uvAC intra: 3.2% 23.0% 1.7% inter: 0.2% 0.7% 0.0%\n[libx264 @ 0000023794920ac0] i16 v,h,dc,p: 35% 29%  6% 30%\n[libx264 @ 0000023794920ac0] i8 v,h,dc,ddl,ddr,vr,hd,vl,hu: 11%  5% 66%  4%  3%  3%  3%  3%  2%\n[libx264 @ 0000023794920ac0] i4 v,h,dc,ddl,ddr,vr,hd,vl,hu: 10%  8% 24%  8% 13% 10%  8%  8%  9%\n[libx264 @ 0000023794920ac0] i8c dc,h,v,p: 89%  6%  4%  1%\n[libx264 @ 0000023794920ac0] Weighted P-Frames: Y:0.0% UV:0.0%\n[libx264 @ 0000023794920ac0] ref P L0: 58.4%  7.0% 22.8%  4.7%  7.1%\n[libx264 @ 0000023794920ac0] ref B L0: 84.9% 11.0%  3.0%  1.1%\n[libx264 @ 0000023794920ac0] ref B L1: 95.0%  5.0%\n[libx264 @ 0000023794920ac0] kb/s:737.65\n",
  "seconds": 8.699819087982178,
  "probe_out": {}
}